<svg width="197" height="263" viewBox="0 0 197 263" fill="none" xmlns="http://www.w3.org/2000/svg">
<path d="M110.231 -36.0485C139.675 -65.4924 178.827 -81.7064 220.469 -81.7135V-79.7194C135.602 -79.7194 66.5671 -10.6846 66.5671 74.1824C66.5671 115.294 82.576 153.944 111.638 183.006C140.7 212.068 179.358 228.084 220.462 228.077L220.462 230.071C178.813 230.071 139.668 213.85 110.224 184.406C80.78 154.962 64.566 115.81 64.5589 74.1682C64.566 32.5408 80.787 -6.6046 110.231 -36.0485Z" fill="#0B315E"/>
<path d="M117.861 -28.4188C144.151 -54.7091 180.44 -70.9867 220.462 -70.9867V-68.9926C141.52 -68.9926 77.2939 -4.76612 77.2869 74.1824C77.2869 153.124 141.52 217.357 220.462 217.357L220.462 219.351C140.417 219.351 75.2928 154.227 75.2858 74.1753C75.2928 34.1601 91.5775 -2.13566 117.861 -28.4188Z" fill="#0B315E"/>
<path d="M125.398 -20.8811C150.791 -46.2733 184.555 -60.2528 220.469 -60.2599V-58.2658C185.085 -58.2658 151.83 -44.4843 126.82 -19.474C101.802 5.54347 88.0278 38.8057 88.0278 74.1752C88.0278 109.559 101.809 142.814 126.82 167.824C151.837 192.842 185.099 206.616 220.469 206.616L220.469 208.61C184.562 208.61 150.791 194.624 125.398 169.232C100.006 143.839 86.0267 110.075 86.0196 74.1611C86.0267 38.2754 100.006 4.5111 125.398 -20.8811Z" fill="#0B315E"/>
<path d="M133.028 -13.2514C155.429 -35.6525 186.358 -49.526 220.469 -49.526V-47.5319C153.35 -47.5319 98.7476 7.07086 98.7476 74.1894C98.7476 141.308 153.35 195.911 220.469 195.911L220.469 197.905C152.247 197.905 96.7465 142.404 96.7535 74.1894C96.7535 40.0786 110.627 9.14975 133.028 -13.2514Z" fill="#0B315E"/>
<path d="M140.608 -5.67122C161.065 -26.1278 189.314 -38.8063 220.469 -38.8063V-36.8122C159.262 -36.8122 109.474 12.9752 109.481 74.1753C109.481 135.382 159.269 185.17 220.469 185.163L220.469 187.157C158.173 187.157 107.48 136.464 107.48 74.1682C107.473 43.0343 120.152 14.7854 140.608 -5.67122Z" fill="#0B315E"/>
<path d="M148.188 1.90898C166.708 -16.6102 192.277 -28.0794 220.462 -28.0794V-26.0854C165.18 -26.0854 120.201 18.8936 120.201 74.1753C120.201 100.96 130.631 126.141 149.567 145.077C168.504 164.013 193.684 174.443 220.469 174.443L220.469 176.437C193.153 176.444 167.471 165.795 148.16 146.484C128.849 127.173 118.207 101.484 118.207 74.1753C118.207 45.99 129.669 20.4281 148.188 1.90898Z" fill="#0B315E"/>
<path d="M155.769 9.48915C172.343 -7.08543 195.225 -17.3526 220.469 -17.3526V-15.3586C171.099 -15.3586 130.935 24.8051 130.935 74.1753C130.935 123.545 171.099 163.709 220.469 163.709L220.469 165.703C169.996 165.703 128.934 124.641 128.934 74.1682C128.934 48.9528 139.194 26.0637 155.769 9.48915Z" fill="#0B315E"/>
</svg>
