<svg width="211" height="377" viewBox="0 0 211 377" fill="none" xmlns="http://www.w3.org/2000/svg">
<path d="M100.127 298.406C70.6828 327.85 31.5303 344.064 -10.1112 344.071V342.077C74.7557 342.077 143.791 273.042 143.791 188.175C143.791 147.064 127.782 108.414 98.7196 79.3515C69.6575 50.2894 31 34.2734 -10.1041 34.2805L-10.1042 32.2865C31.5444 32.2865 70.6898 48.5075 100.134 77.9514C129.578 107.395 145.792 146.548 145.799 188.189C145.792 229.817 129.571 268.962 100.127 298.406Z" fill="#0B315E"/>
<path d="M92.497 290.776C66.2068 317.067 29.9181 333.344 -10.1042 333.344V331.35C68.8372 331.35 133.064 267.124 133.071 188.175C133.071 109.234 68.8372 45.0002 -10.1042 45.0002L-10.1042 43.0062C69.9403 43.0062 135.065 108.131 135.072 188.182C135.065 228.197 118.78 264.493 92.497 290.776Z" fill="#0B315E"/>
<path d="M84.9593 283.239C59.5671 308.631 25.8027 322.61 -10.1112 322.617V320.623C25.2724 320.623 58.5276 306.842 83.538 281.832C108.555 256.814 122.33 223.552 122.33 188.182C122.33 152.799 108.548 119.543 83.538 94.5331C58.5205 69.5157 25.2582 55.7412 -10.1113 55.7412L-10.1113 53.7472C25.7956 53.7472 59.567 67.7337 84.9593 93.1259C110.351 118.518 124.331 152.283 124.338 188.196C124.331 224.082 110.351 257.846 84.9593 283.239Z" fill="#0B315E"/>
<path d="M77.3296 275.609C54.9284 298.01 23.9996 311.884 -10.1113 311.884V309.89C57.0073 309.89 111.61 255.287 111.61 188.168C111.61 121.05 57.0073 66.4468 -10.1113 66.4468L-10.1113 64.4528C58.1104 64.4528 113.611 119.954 113.604 188.168C113.604 222.279 99.7307 253.208 77.3296 275.609Z" fill="#0B315E"/>
<path d="M69.7494 268.029C49.2928 288.485 21.0439 301.164 -10.1113 301.164V299.17C51.0959 299.17 100.883 249.382 100.876 188.182C100.876 126.975 51.0888 77.1878 -10.1113 77.1948L-10.1112 75.2008C52.1849 75.2008 102.877 125.893 102.877 188.189C102.884 219.323 90.206 247.572 69.7494 268.029Z" fill="#0B315E"/>
<path d="M62.1692 260.449C43.6501 278.968 18.0811 290.437 -10.1042 290.437V288.443C45.1774 288.443 90.1565 243.464 90.1565 188.182C90.1565 161.397 79.7267 136.217 60.7904 117.281C41.8541 98.3444 16.6739 87.9146 -10.1113 87.9146L-10.1112 85.9205C17.2043 85.9134 42.8864 96.5625 62.1975 115.874C81.5086 135.185 92.1505 160.874 92.1505 188.182C92.1505 216.368 80.6883 241.929 62.1692 260.449Z" fill="#0B315E"/>
<path d="M54.589 252.868C38.0144 269.443 15.1325 279.71 -10.1113 279.71V277.716C39.2589 277.716 79.4226 237.553 79.4226 188.182C79.4226 138.812 39.2589 98.6485 -10.1113 98.6485L-10.1113 96.6544C40.362 96.6544 81.4237 137.716 81.4237 188.189C81.4237 213.405 71.1636 236.294 54.589 252.868Z" fill="#0B315E"/>
</svg>
