<svg width="174" height="174" viewBox="0 0 174 174" fill="none" xmlns="http://www.w3.org/2000/svg">
<g opacity="0.89">
<g opacity="0.89">
<path opacity="0.89" d="M0 173C95.5453 173 173 95.5453 173 0C173 -95.5453 95.5453 -173 0 -173C-95.5453 -173 -173 -95.5453 -173 0C-173 95.5453 -95.5453 173 0 173Z" stroke="black" stroke-width="0.8127" stroke-linecap="round" stroke-linejoin="round"/>
</g>
<g opacity="0.89">
<path opacity="0.89" d="M-0.000350952 160.383C88.5768 160.383 160.383 88.5772 160.383 -7.62939e-06C160.383 -88.5772 88.5768 -160.383 -0.000350952 -160.383C-88.5775 -160.383 -160.384 -88.5772 -160.384 -7.62939e-06C-160.384 88.5772 -88.5775 160.383 -0.000350952 160.383Z" stroke="black" stroke-width="0.9493" stroke-linecap="round" stroke-linejoin="round"/>
</g>
<g opacity="0.89">
<path opacity="0.89" d="M0.000289917 147.766C81.6094 147.766 147.767 81.6091 147.767 0C147.767 -81.6091 81.6094 -147.766 0.000289917 -147.766C-81.6088 -147.766 -147.766 -81.6091 -147.766 0C-147.766 81.6091 -81.6088 147.766 0.000289917 147.766Z" stroke="black" stroke-width="1.0859" stroke-linecap="round" stroke-linejoin="round"/>
</g>
<g opacity="0.89">
<path opacity="0.89" d="M-6.10352e-05 135.15C74.641 135.15 135.149 74.641 135.149 -1.52588e-05C135.149 -74.6411 74.641 -135.15 -6.10352e-05 -135.15C-74.6411 -135.15 -135.15 -74.6411 -135.15 -1.52588e-05C-135.15 74.641 -74.6411 135.15 -6.10352e-05 135.15Z" stroke="black" stroke-width="1.2225" stroke-linecap="round" stroke-linejoin="round"/>
</g>
<g opacity="0.89">
<path opacity="0.89" d="M9.15527e-05 122.533C67.6731 122.533 122.533 67.673 122.533 7.62939e-06C122.533 -67.673 67.6731 -122.533 9.15527e-05 -122.533C-67.6729 -122.533 -122.533 -67.673 -122.533 7.62939e-06C-122.533 67.673 -67.6729 122.533 9.15527e-05 122.533Z" stroke="black" stroke-width="1.3591" stroke-linecap="round" stroke-linejoin="round"/>
</g>
<g opacity="0.89">
<path opacity="0.89" d="M0.000175476 109.916C60.7051 109.916 109.916 60.7049 109.916 7.62939e-06C109.916 -60.7049 60.7051 -109.916 0.000175476 -109.916C-60.7047 -109.916 -109.916 -60.7049 -109.916 7.62939e-06C-109.916 60.7049 -60.7047 109.916 0.000175476 109.916Z" stroke="black" stroke-width="1.4956" stroke-linecap="round" stroke-linejoin="round"/>
</g>
<g opacity="0.89">
<path opacity="0.89" d="M-0.000167847 97.2992C53.7367 97.2992 97.299 53.7368 97.299 1.52588e-05C97.299 -53.7368 53.7367 -97.2991 -0.000167847 -97.2991C-53.737 -97.2991 -97.2993 -53.7368 -97.2993 1.52588e-05C-97.2993 53.7368 -53.737 97.2992 -0.000167847 97.2992Z" stroke="black" stroke-width="1.6322" stroke-linecap="round" stroke-linejoin="round"/>
</g>
<g opacity="0.89">
<path opacity="0.89" d="M-3.05176e-05 84.6823C46.7687 84.6823 84.6823 46.7688 84.6823 0C84.6823 -46.7688 46.7687 -84.6823 -3.05176e-05 -84.6823C-46.7688 -84.6823 -84.6824 -46.7688 -84.6824 0C-84.6824 46.7688 -46.7688 84.6823 -3.05176e-05 84.6823Z" stroke="black" stroke-width="1.7688" stroke-linecap="round" stroke-linejoin="round"/>
</g>
<g opacity="0.89">
<path opacity="0.89" d="M3.8147e-05 72.087C39.8125 72.087 72.0869 39.8125 72.0869 0C72.0869 -39.8125 39.8125 -72.0869 3.8147e-05 -72.0869C-39.8125 -72.0869 -72.0869 -39.8125 -72.0869 0C-72.0869 39.8125 -39.8125 72.087 3.8147e-05 72.087Z" stroke="black" stroke-width="1.9054" stroke-linecap="round" stroke-linejoin="round"/>
</g>
<g opacity="0.89">
<path opacity="0.89" d="M0.000362396 59.4701C32.8448 59.4701 59.4705 32.8444 59.4705 -3.8147e-06C59.4705 -32.8444 32.8448 -59.4701 0.000362396 -59.4701C-32.8441 -59.4701 -59.4697 -32.8444 -59.4697 -3.8147e-06C-59.4697 32.8444 -32.8441 59.4701 0.000362396 59.4701Z" stroke="black" stroke-width="2.042" stroke-linecap="round" stroke-linejoin="round"/>
</g>
<g opacity="0.89">
<path opacity="0.89" d="M1.52588e-05 46.8533C25.8764 46.8533 46.8533 25.8764 46.8533 1.52588e-05C46.8533 -25.8763 25.8764 -46.8533 1.52588e-05 -46.8533C-25.8763 -46.8533 -46.8533 -25.8763 -46.8533 1.52588e-05C-46.8533 25.8764 -25.8763 46.8533 1.52588e-05 46.8533Z" stroke="black" stroke-width="2.1786" stroke-linecap="round" stroke-linejoin="round"/>
</g>
<g opacity="0.89">
<path opacity="0.89" d="M-8.39233e-05 34.2365C18.9082 34.2365 34.2363 18.9083 34.2363 3.8147e-06C34.2363 -18.9083 18.9082 -34.2364 -8.39233e-05 -34.2364C-18.9084 -34.2364 -34.2366 -18.9083 -34.2366 3.8147e-06C-34.2366 18.9083 -18.9084 34.2365 -8.39233e-05 34.2365Z" stroke="black" stroke-width="2.3152" stroke-linecap="round" stroke-linejoin="round"/>
</g>
</g>
</svg>
